# xmcd
# 
# Track frame offsets:
#     150
#     13353
#     25785
#     38650
#     51164
#     65800
#     79061
#     91314
#     107015
#     121429
#     133165
#     144690
#     156989
#     172193
#     183223
#     196210
#     206650
#     220658
#     232239
#     244294
# 
# Disc length: 3389
# 
# Revision: 0
# Processed by: cddbd v1.5.2PL0 Copyright (c) Steve Scherf et al.
# Submitted via: fre:ac v1.0.31
# 
DISCID=2c0d3b14
DTITLE=B.B.King - Can't Kick The Blues - CD 3
DYEAR=2014
DGENRE=Blues
TTITLE0=Woke Up This Morning
TTITLE1=Boogie Woogie Woman
TTITLE2=Bad Luck
TTITLE3=Highway Bound
TTITLE4=Please Remember Me
TTITLE5=I Want To Get Married
TTITLE6=I Got A Gal
TTITLE7=My Own Fault, Darlin'
TTITLE8=Past Day (Don't Have To Cry)
TTITLE9=Shut Your Mouth
TTITLE10=Ruby Lee
TTITLE11=Please Hurry Home
TTITLE12=Can't We Talk It Over
TTITLE13=Gotta Find My Baby
TTITLE14=Praying To The Lord
TTITLE15=Bad Case Of Love
TTITLE16=Low Down Your Baby
TTITLE17=Dark Is The Night (Part 1)
TTITLE18=Dark Is The Night (Part 2)
TTITLE19=Time To Say Goodbye
EXTD=
EXTT0=
EXTT1=
EXTT2=
EXTT3=
EXTT4=
EXTT5=
EXTT6=
EXTT7=
EXTT8=
EXTT9=
EXTT10=
EXTT11=
EXTT12=
EXTT13=
EXTT14=
EXTT15=
EXTT16=
EXTT17=
EXTT18=
EXTT19=
PLAYORDER=
